<svg xmlns="http://www.w3.org/2000/svg" viewBox="0 0 800 600" width="800" height="600">
  <rect width="800" height="600" fill="#09090b"/>
  <circle cx="400" cy="280" r="120" fill="#10b981" opacity="0.15"/>
  <circle cx="400" cy="280" r="80" fill="#10b981" opacity="0.1"/>
  <!-- Dog silhouette -->
  <g transform="translate(400,260)" fill="#10b981" opacity="0.6">
    <ellipse cx="0" cy="20" rx="60" ry="40"/>
    <circle cx="-5" cy="-30" r="30"/>
    <ellipse cx="-30" cy="-55" rx="10" ry="20" transform="rotate(-20,-30,-55)"/>
    <ellipse cx="15" cy="-55" rx="10" ry="20" transform="rotate(15,15,-55)"/>
    <ellipse cx="-30" cy="45" rx="12" ry="25" transform="rotate(-10,-30,45)"/>
    <ellipse cx="30" cy="45" rx="12" ry="25" transform="rotate(10,30,45)"/>
    <ellipse cx="-20" cy="50" rx="15" ry="8" transform="rotate(-10,-20,50)"/>
    <ellipse cx="20" cy="50" rx="15" ry="8" transform="rotate(10,20,50)"/>
  </g>
</svg>
